<?xml version="1.0" standalone="no"?>
<!DOCTYPE svg PUBLIC "-//W3C//DTD SVG 20010904//EN"
 "http://www.w3.org/TR/2001/REC-SVG-20010904/DTD/svg10.dtd">
<svg version="1.0" xmlns="http://www.w3.org/2000/svg"
 width="500.000000pt" height="500.000000pt" viewBox="0 0 500.000000 500.000000"
 preserveAspectRatio="xMidYMid meet">

<g transform="translate(0.000000,500.000000) scale(0.100000,-0.100000)"
fill="#000000" stroke="none">
<path d="M1520 3725 c-116 -33 -130 -68 -46 -115 121 -69 185 -154 221 -295
14 -54 34 -278 35 -379 0 -54 52 -103 143 -135 37 -13 67 -25 67 -26 0 -11
-76 -54 -144 -82 l-80 -32 -17 -103 c-26 -155 -71 -272 -146 -376 -18 -26 -33
-49 -33 -52 0 -3 44 -5 98 -6 118 -1 165 -15 325 -98 l119 -61 105 -3 c124 -5
168 7 293 78 121 69 181 84 320 84 135 -1 192 -17 328 -94 109 -61 156 -73
279 -68 76 3 109 9 148 26 l50 23 -25 20 c-260 207 -422 425 -591 791 -92 199
-145 289 -246 415 -245 305 -617 489 -1008 499 -105 3 -154 0 -195 -11z"/>
<path d="M1490 1950 c-25 -5 -109 -42 -187 -81 -131 -66 -148 -72 -218 -77
-66 -4 -78 -8 -95 -30 -44 -55 -10 -102 75 -102 104 0 196 31 336 113 92 54
230 71 341 42 31 -8 100 -39 154 -69 116 -65 193 -86 318 -86 114 0 190 20
296 78 123 68 166 83 250 89 106 8 173 -10 303 -77 138 -72 203 -90 322 -90
118 0 187 19 310 84 110 59 188 86 247 86 71 0 110 43 86 95 -15 32 -43 39
-129 31 -83 -7 -159 -34 -259 -92 -107 -60 -172 -77 -286 -72 -92 4 -94 4
-236 76 -164 83 -217 96 -358 89 -111 -5 -176 -26 -288 -90 -99 -57 -167 -77
-264 -77 -92 0 -166 22 -258 76 -121 71 -173 86 -300 90 -63 2 -135 -1 -160
-6z"/>
<path d="M1510 1670 c-58 -10 -129 -39 -210 -85 -98 -55 -128 -66 -215 -75
-64 -6 -83 -12 -97 -30 -23 -29 -23 -52 1 -81 17 -21 27 -24 82 -22 95 4 170
27 292 92 115 61 182 81 265 81 79 -1 131 -18 277 -90 123 -61 150 -71 223
-80 100 -12 225 2 296 33 28 12 85 40 127 64 179 100 305 98 506 -8 135 -72
209 -92 328 -92 116 0 198 22 304 81 106 59 161 79 231 87 30 3 65 8 77 10 25
6 44 51 32 82 -13 36 -45 46 -123 38 -87 -8 -156 -32 -245 -83 -114 -66 -169
-82 -276 -82 -110 0 -157 13 -266 76 -101 58 -175 83 -273 90 -134 11 -207 -7
-370 -90 l-141 -71 -125 0 c-138 0 -109 -9 -318 99 -114 59 -251 79 -382 56z"/>
</g>
</svg>
